
<?xml version="1.0" encoding="UTF-8"?>
<svg version="1.1" xmlns="http://www.w3.org/2000/svg" width="2400" height="2400">
<path d="M0 0 C2.30753367 -0.00239701 4.61506656 -0.00566675 6.92259791 -0.0097166 C13.21324849 -0.01826194 19.50383869 -0.01454152 25.79449006 -0.00866088 C31.94760237 -0.00489879 38.10070026 -0.01063134 44.25381016 -0.01600846 C56.97608554 -0.02678899 69.69834607 -0.02818039 82.42062473 -0.02431011 C95.29932695 -0.02042364 108.17801812 -0.02090495 121.05671978 -0.02661991 C122.28048214 -0.02715815 122.28048214 -0.02715815 123.52896698 -0.02770726 C126.85221448 -0.02918231 130.17546196 -0.03068672 133.49870943 -0.03222873 C167.17298141 -0.04783519 200.84724579 -0.05054578 234.52152074 -0.04807267 C239.16910807 -0.04773419 243.81669541 -0.0474121 248.46428275 -0.04710698 C249.84912034 -0.04701542 249.84912034 -0.04701542 251.26193445 -0.046922 C271.75223093 -0.0456483 292.24252638 -0.04825479 312.73282256 -0.05163305 C317.41621419 -0.0524038 322.09960584 -0.05314854 326.78299748 -0.05389806 C328.66274641 -0.05419976 330.54249535 -0.05450164 332.42224429 -0.05480371 C333.81991819 -0.05502822 333.81991819 -0.05502822 335.24582794 -0.05525728 C337.13062934 -0.05556081 339.01543074 -0.0558655 340.90023215 -0.05617132 C394.35920587 -0.0648407 447.81817868 -0.06949094 501.27715302 -0.06522369 C502.26639751 -0.06514564 503.255642 -0.06506758 504.2748636 -0.06498716 C515.30511594 -0.06411442 526.33536827 -0.06318515 537.36562061 -0.06223653 C538.36142308 -0.06215102 539.35722556 -0.06206551 540.38320386 -0.06197741 C548.65574317 -0.06126676 548.65574317 -0.06126676 552.46445776 -0.06093518 C616.14442999 -0.0554007 679.82438773 -0.06293934 743.50435734 -0.08170605 C759.54886688 -0.08642859 775.59337643 -0.09110925 791.63788605 -0.09554291 C792.62592495 -0.09581623 793.61396385 -0.09608955 794.63194333 -0.09637116 C825.10427452 -0.10474791 855.57660451 -0.10942263 886.04893684 -0.11025047 C887.00622163 -0.11027684 887.96350641 -0.11030321 888.94979982 -0.11033037 C909.96865167 -0.11087126 930.98750342 -0.11049846 952.00635523 -0.10929066 C959.52800043 -0.10886507 967.04964563 -0.10849993 974.57129083 -0.10816122 C976.44234288 -0.10807591 978.31339493 -0.10798698 980.18444699 -0.1078944 C1009.94286127 -0.10644829 1039.70126567 -0.11355456 1069.45967758 -0.12489836 C1100.28276037 -0.13657189 1131.10582558 -0.13708642 1161.92890846 -0.12505493 C1165.24633954 -0.12380322 1168.56377063 -0.12259972 1171.88120174 -0.12143421 C1173.10235456 -0.12099877 1173.10235456 -0.12099877 1174.34817712 -0.12055453 C1187.18229666 -0.11624745 1200.01639101 -0.12192783 1212.85050659 -0.1318744 C1225.5036595 -0.14146677 1238.15677395 -0.14016322 1250.80992469 -0.12766818 C1257.56426066 -0.12128513 1264.31849537 -0.11975372 1271.0728318 -0.13153151 C1332.59926735 -0.23139855 1392.10471485 5.85556746 1451.06026554 24.25447559 C1452.23508488 24.61734669 1453.40990421 24.98021778 1454.62032413 25.35408497 C1522.77787792 46.60702405 1586.37727117 81.30509564 1641.34102726 126.83943653 C1642.87197666 128.09950224 1644.42007201 129.33867028 1645.97042179 130.57478809 C1652.11522247 135.4797689 1657.88027543 140.71459034 1663.58394718 146.11946583 C1666.65175262 149.02504156 1669.74836887 151.86860212 1672.95089054 154.62556934 C1677.54263261 158.61578042 1681.833708 162.88109078 1686.12276554 167.19197559 C1687.26841984 168.33182911 1687.26841984 168.33182911 1688.43721867 169.49470997 C1692.62460957 173.68926493 1696.64538227 177.96956224 1700.51216984 182.4612627 C1702.5998769 184.87952612 1704.76754863 187.22044029 1706.93526554 189.56697559 C1711.85603856 194.96945079 1716.48727044 200.5568514 1721.06026554 206.25447559 C1721.98416003 207.38646346 1722.90866844 208.51795046 1723.83370304 209.64900684 C1760.75833355 255.00355383 1789.99944957 306.77035545 1811.06026554 361.25447559 C1811.45310734 362.26912891 1811.84594913 363.28378223 1812.25069523 364.32918262 C1838.9374231 434.02636152 1847.56522272 505.91400295 1847.4456682 580.08909585 C1847.43877294 586.2424639 1847.44622997 592.39580269 1847.45309935 598.54916803 C1847.46679127 611.26201774 1847.46650267 623.97483121 1847.45825672 636.68768406 C1847.44996621 649.54809647 1847.44829122 662.4084851 1847.45446873 675.26889896 C1847.45485624 676.08499877 1847.45524376 676.90109858 1847.45564302 677.74192868 C1847.45724306 681.06646427 1847.45888922 684.39099984 1847.46059385 687.71553538 C1847.47641388 718.59136382 1847.47755925 749.46717635 1847.4691515 780.34300709 C1847.46105511 810.090222 1847.45789078 839.83742938 1847.46171284 869.58464527 C1847.46194528 871.45657051 1847.46217675 873.32849576 1847.46240725 875.200421 C1847.46333873 882.72381741 1847.46429474 890.24721382 1847.46528654 897.77061022 C1847.46803691 918.79871482 1847.46974919 939.82681944 1847.47064495 960.8549242 C1847.47068589 961.81231713 1847.47072683 962.76971005 1847.470769 963.75611488 C1847.47199596 994.2409261 1847.46862069 1024.72573504 1847.46209621 1055.21054554 C1847.46188547 1056.19859582 1847.46167472 1057.1866461 1847.46145759 1058.2046373 C1847.45802317 1074.24767976 1847.45436458 1090.29072218 1847.45068707 1106.33376459 C1847.43611922 1169.95350012 1847.4367954 1233.57321671 1847.45137882 1297.19295216 C1847.4550427 1313.2281033 1847.45867598 1329.26325445 1847.46209621 1345.29840565 C1847.46241323 1346.7796273 1847.46241323 1346.7796273 1847.46273665 1348.29077263 C1847.46920984 1378.74519105 1847.47194716 1409.1996079 1847.47064495 1439.65402699 C1847.4706042 1440.61070769 1847.47056345 1441.5673884 1847.47052146 1442.55305944 C1847.46958382 1463.55820645 1847.46768252 1484.56335329 1847.46491344 1505.56850014 C1847.46392611 1513.08497726 1847.46298686 1520.60145438 1847.46206131 1528.1179315 C1847.46182914 1529.98765825 1847.46159295 1531.85738499 1847.46135272 1533.72711174 C1847.45754293 1563.46016447 1847.46180659 1593.19320895 1847.46990315 1622.92626059 C1847.47819607 1653.71709341 1847.47509704 1684.50790718 1847.45930927 1715.29873729 C1847.45765238 1718.61250891 1847.45604224 1721.92628056 1847.45446873 1725.24005222 C1847.45407811 1726.05325116 1847.45368749 1726.8664501 1847.45328503 1727.70429143 C1847.44739306 1740.52392247 1847.45146054 1753.34352962 1847.45977574 1766.16315849 C1847.46775767 1778.80180469 1847.46484279 1791.44041104 1847.45073348 1804.07905224 C1847.44348716 1810.82545096 1847.44107766 1817.57174934 1847.45195143 1824.31815088 C1847.60295915 1925.6419047 1826.80112338 2024.06251528 1708.02510929 2209.10994434 C1706.23088123 2211.06825687 1704.48331318 2213.05673696 1702.74776554 2215.06697559 C1695.05462437 2223.86666447 1687.05847435 2232.34946507 1678.81026554 2240.62947559 C1678.16130314 2241.28303028 1677.51234074 2241.93658497 1676.84371281 2242.60994434 C1672.98911637 2246.45231329 1669.01904133 2250.10369427 1664.89962101 2253.66023731 C1662.4691328 2255.76683248 1660.11019351 2257.94707713 1657.74776554 2260.12947559 C1652.34529034 2265.05024861 1646.75788973 2269.68148049 1641.06026554 2274.25447559 C1639.92827768 2275.17837008 1638.79679067 2276.10287849 1637.66573429 2277.02791309 C1560.94296815 2339.48585099 1466.99886523 2380.16098213 1332.06026554 2399.25447559 C1331.17433624 2399.3375616 1330.28840694 2399.42064761 1329.37563129 2399.50625138 C1318.07570503 2400.44769555 1306.80272209 2400.39587552 1295.47126389 2400.38590336 C1293.17624877 2400.38755505 1290.88123394 2400.38964226 1288.58621958 2400.39212346 C1282.27906499 2400.39767341 1275.97192403 2400.39702076 1269.66476779 2400.39534587 C1263.51116825 2400.39419811 1257.35757141 2400.39872962 1251.20397342 2400.40260989 C1238.46855153 2400.41046741 1225.73313244 2400.41357114 1212.99770832 2400.41405582 C1200.0950383 2400.4145587 1187.19237141 2400.4172106 1174.28970242 2400.42246342 C1173.47407597 2400.42279355 1172.65844953 2400.42312368 1171.81810713 2400.42346382 C1168.496027 2400.42481387 1165.17394686 2400.42617654 1161.85186674 2400.42755593 C1122.54622533 2400.44384725 1083.24058454 2400.45024336 1043.93494033 2400.4550038 C1024.3552946 2400.45738847 1004.77564922 2400.46109226 985.19600375 2400.46504089 C922.36253349 2400.47770521 859.52906325 2400.48848847 796.69559174 2400.49188135 C793.69323453 2400.49204359 790.69087733 2400.49220915 787.68852012 2400.49237574 C781.66743359 2400.49270953 775.64634706 2400.49304001 769.62526053 2400.49337029 C762.57631286 2400.49375719 755.52736518 2400.4941468 748.47841751 2400.49454136 C746.46096562 2400.49465378 744.44351373 2400.4947652 742.42606184 2400.49487561 C677.65854623 2400.49842361 612.89104171 2400.51349619 548.12353033 2400.53681336 C501.57656761 2400.5535641 455.02960699 2400.56903389 408.48264122 2400.57354832 C407.52456459 2400.5736418 406.56648796 2400.57373529 405.5793787 2400.57383161 C384.54287683 2400.57585106 363.50637499 2400.57700677 342.46987303 2400.57736019 C334.94165396 2400.57749636 327.41343489 2400.57770535 319.88521583 2400.57795345 C318.01247543 2400.57801501 316.13973503 2400.57807333 314.26699463 2400.57812839 C284.47381514 2400.57904673 254.68064726 2400.58899719 224.88747159 2400.60358588 C194.85966962 2400.61823055 164.83188188 2400.62322601 134.80407697 2400.61516634 C130.64520095 2400.61405112 126.48632491 2400.61304042 122.32744884 2400.61209202 C121.51227326 2400.61190205 120.69709768 2400.61171208 119.8572198 2400.61151636 C107.00306142 2400.60879364 94.14892952 2400.6160894 81.29477689 2400.62766539 C68.62328592 2400.63886496 55.95183201 2400.63917915 43.28034041 2400.6282952 C36.51528648 2400.62277334 29.75033472 2400.62212882 22.98528268 2400.63480392 C-3.81136383 2400.6818341 -30.31819767 2400.59969582 -56.93973446 2397.25447559 C-58.79902345 2397.02317577 -58.79902345 2397.02317577 -60.69587383 2396.78720322 C-99.78277151 2391.84959169 -137.67242117 2382.98437108 -174.93973446 2370.25447559 C-175.90669247 2369.92479786 -176.87365047 2369.59512012 -177.86991024 2369.25545216 C-211.62626634 2357.62754142 -244.2356464 2342.45383945 -274.93973446 2324.25447559 C-276.40564022 2323.3877422 -276.40564022 2323.3877422 -277.90116024 2322.50349903 C-290.22274815 2315.1868694 -302.30554328 2307.6245987 -313.93973446 2299.25447559 C-315.06025204 2298.45058399 -315.06025204 2298.45058399 -316.20340633 2297.63045216 C-326.8269597 2289.97922412 -337.13948436 2282.02105868 -347.22049618 2273.66951466 C-348.75144558 2272.40944895 -350.29954093 2271.1702809 -351.84989071 2269.93416309 C-357.99469138 2265.02918229 -363.75974435 2259.79436085 -369.4634161 2254.38948536 C-372.53122154 2251.48390963 -375.62783779 2248.64034907 -378.83035946 2245.88338184 C-383.42210153 2241.89317076 -387.71317691 2237.6278604 -392.00223446 2233.31697559 C-392.76600399 2232.55707325 -393.52977352 2231.79717091 -394.31668758 2231.01424122 C-398.50407849 2226.81968626 -402.52485119 2222.53938895 -406.39163876 2218.04768848 C-408.47934582 2215.62942506 -410.64701755 2213.2885109 -412.81473446 2210.94197559 C-417.73550748 2205.5395004 -422.36673936 2199.95209978 -426.93973446 2194.25447559 C-427.86362895 2193.12248773 -428.78813736 2191.99100072 -429.71317196 2190.85994434 C-489.20293318 2117.78325959 -528.45838643 2029.40851418 -553.32513712 1820.41985534 C-553.31824186 1814.26648728 -553.32569888 1808.11314849 -553.33256827 1801.95978315 C-553.34626019 1789.24693345 -553.34597159 1776.53411998 -553.33772564 1763.82126713 C-553.32943513 1750.96085472 -553.32776014 1738.10046609 -553.33393764 1725.24005222 C-553.33432516 1724.42395242 -553.33471268 1723.60785261 -553.33511194 1722.76702251 C-553.33671198 1719.44248692 -553.33835814 1716.11795135 -553.34006277 1712.79341581 C-553.3558828 1681.91758737 -553.35702817 1651.04177484 -553.34862041 1620.1659441 C-553.34052403 1590.41872919 -553.3373597 1560.6715218 -553.34118176 1530.92430592 C-553.34141419 1529.05238067 -553.34164566 1527.18045543 -553.34187617 1525.30853019 C-553.34280765 1517.78513378 -553.34376366 1510.26173737 -553.34475546 1502.73834096 C-553.34750583 1481.71023636 -553.34921811 1460.68213174 -553.35011387 1439.65402699 C-553.35015481 1438.69663406 -553.35019574 1437.73924114 -553.35023792 1436.75283631 C-553.35146488 1406.26802509 -553.34808961 1375.78321615 -553.34156513 1345.29840565 C-553.34124901 1343.81633023 -553.34124901 1343.81633023 -553.3409265 1342.30431389 C-553.33749208 1326.26127142 -553.3338335 1310.21822901 -553.33015598 1294.1751866 C-553.31558814 1230.55545107 -553.31626432 1166.93573448 -553.33084774 1103.31599903 C-553.33451162 1087.28084789 -553.3381449 1071.24569674 -553.34156513 1055.21054554 C-553.34177648 1054.22306444 -553.34198782 1053.23558333 -553.34220557 1052.21817856 C-553.34867876 1021.76376014 -553.35141607 991.30934329 -553.35011387 960.8549242 C-553.35007312 959.89824349 -553.35003236 958.94156278 -553.34999037 957.95589175 C-553.34905274 936.95074474 -553.34715144 915.94559789 -553.34438236 894.94045105 C-553.34339503 887.42397393 -553.34245578 879.90749681 -553.34153023 872.39101969 C-553.34129806 870.52129294 -553.34106187 868.65156619 -553.34082164 866.78183945 C-553.33701185 837.04878671 -553.34127551 807.31574224 -553.34937207 777.58269059 C-553.35766499 746.79185778 -553.35456596 716.001044 -553.33877818 685.2102139 C-553.33712129 681.89644227 -553.33551116 678.58267063 -553.33393764 675.26889896 C-553.33354702 674.45570003 -553.3331564 673.64250109 -553.33275395 672.80465976 C-553.32686198 659.98502872 -553.33092945 647.16542157 -553.33924466 634.3457927 C-553.34722658 621.7071465 -553.34431171 609.06854015 -553.3302024 596.42989894 C-553.32295608 589.68350023 -553.32054658 582.93720185 -553.33142035 576.19080031 C-553.44720235 498.54196739 -542.58119111 423.47974736 -512.93973446 351.25447559 C-512.5357745 350.26850391 -512.13181454 349.28253223 -511.71561337 348.26668262 C-490.40070605 296.78834818 -461.91637354 248.90241935 -426.36356258 205.98250294 C-425.07909569 204.42361119 -423.81294509 202.8496712 -422.54910946 201.27400684 C-417.12721956 194.51614767 -411.33923694 188.17242054 -405.4231329 181.85115528 C-403.1515052 179.40605239 -400.92570272 176.91967016 -398.68973446 174.44197559 C-394.15627378 169.49398948 -389.48831193 164.69615063 -384.75223446 159.94197559 C-384.09900204 159.28415089 -383.44576962 158.62632618 -382.77274227 157.94856739 C-378.90082874 154.08884502 -374.91511177 150.4188082 -370.77689266 146.84651661 C-368.34699014 144.74081636 -365.98890571 142.56117501 -363.62723446 140.37947559 C-358.22475926 135.45870258 -352.63735865 130.8274707 -346.93973446 126.25447559 C-345.8077466 125.3305811 -344.67625959 124.4060727 -343.54520321 123.48103809 C-265.18665019 59.68675925 -168.32019392 18.09854896 -64.31473446 4.06697559 C-63.14990536 3.91196583 -61.98507626 3.75695606 -60.7849493 3.59724903 C-40.55310089 1.05824194 -20.38062607 -0.04480476 0 0 Z " fill="#10ABFE" transform="translate(552.9397344589233,-0.25447559356689453)"/>
<path d="M0 0 C3.48762017 0.02373529 6.97447664 0.02050991 10.4621582 0.01391602 C27.21725032 0.03432741 43.99842484 0.57095345 60.41723633 4.21118164 C61.24320313 4.38770264 62.06916992 4.56422363 62.92016602 4.74609375 C64.59419447 5.10502006 66.26740938 5.46776641 67.93969727 5.8347168 C70.0964994 6.29445855 72.25516245 6.70551871 74.42504883 7.09790039 C98.62839775 11.66932239 122.34779352 21.40579105 144.29223633 32.33618164 C145.07050781 32.71983887 145.8487793 33.10349609 146.65063477 33.4987793 C164.35650549 42.29737836 180.76599735 53.12699146 196.29223633 65.33618164 C197.28739258 66.11735352 198.28254883 66.89852539 199.30786133 67.70336914 C216.67040723 81.64301314 233.84185429 97.55120382 247.29223633 115.33618164 C248.20771219 116.52069668 249.12446174 117.70422803 250.04223633 118.88696289 C252.47326025 122.02590165 254.88685902 125.17755465 257.29223633 128.33618164 C262.08913261 127.68010045 266.83946436 126.89351014 271.59692383 125.99633789 C273.00052333 125.73502121 274.40417085 125.47396232 275.80786133 125.21313477 C277.97080129 124.8098871 280.1333979 124.40509138 282.29516602 123.99560547 C287.28521327 123.05233672 292.28243718 122.16816157 297.29223633 121.33618164 C298.52707764 121.12807861 299.76191895 120.91997559 301.03417969 120.70556641 C315.25644471 118.67200585 329.6341964 119.07174829 343.96722412 119.14056396 C346.84253569 119.1514836 349.71780042 119.15102946 352.59312916 119.15042591 C355.37523229 119.15069761 358.15730485 119.15617544 360.93939781 119.16342735 C362.90033475 119.1681256 364.86127802 119.16988318 366.82221985 119.17158508 C368.60139046 119.18115486 368.60139046 119.18115486 370.41650391 119.19091797 C371.45776932 119.19472977 372.49903473 119.19854156 373.57185364 119.20246887 C375.99630345 119.32163589 377.96705252 119.69977075 380.29223633 120.33618164 C382.35494603 120.52690455 384.41801716 120.71470795 386.48291016 120.88012695 C416.7550093 123.37838174 448.43987154 131.10682279 476.29223633 143.33618164 C478.00913875 144.0666318 479.72664459 144.79566445 481.44458008 145.52368164 C513.5485574 159.19582595 543.41393496 175.9085081 570.29223633 198.33618164 C571.29254883 199.16375977 572.29286133 199.99133789 573.32348633 200.84399414 C587.8899158 212.97501305 602.03040471 225.84962951 614.29223633 240.33618164 C615.08887695 241.24368164 615.88551758 242.15118164 616.70629883 243.08618164 C624.52873304 252.05732472 631.4797445 261.58372306 638.29223633 271.33618164 C638.73954102 271.97281738 639.1868457 272.60945313 639.64770508 273.26538086 C647.27746865 284.18474634 653.80542105 295.71131149 660.29223633 307.33618164 C666.21041756 306.72953436 671.68632266 305.52133088 677.41723633 303.96118164 C687.43499655 301.35238014 697.44005231 299.83209015 707.71362305 298.64477539 C710.02898545 298.36768601 712.33274608 298.04878678 714.63989258 297.71118164 C725.81255664 296.18215574 736.97326256 296.15241857 748.22973633 296.14868164 C749.4481723 296.14718613 749.4481723 296.14718613 750.69122314 296.1456604 C753.02576811 296.14598504 755.3600753 296.15503335 757.69458008 296.16821289 C758.75434807 296.17002563 758.75434807 296.17002563 759.83552551 296.171875 C763.1550077 296.20349032 766.10224354 296.43401383 769.29223633 297.33618164 C770.76867199 297.47672173 772.24869013 297.58219591 773.72973633 297.66040039 C852.39390481 302.65243888 927.84573924 343.3721929 979.88452148 401.73706055 C983.49119743 405.83413433 986.93586395 410.03226195 990.29223633 414.33618164 C990.73889648 414.90498047 991.18555664 415.4737793 991.64575195 416.05981445 C1043.60809463 482.54208103 1063.476501 564.03118129 1055.29223633 647.33618164 C1054.58199056 653.07004257 1053.48485303 658.68317846 1052.29223633 664.33618164 C1052.04717141 665.69457913 1051.80771162 667.05399819 1051.57348633 668.41430664 C1050.04630734 677.23824004 1047.99824337 685.79517744 1045.29223633 694.33618164 C1044.99043457 695.29991699 1044.68863281 696.26365234 1044.37768555 697.2565918 C1039.59055878 712.43289905 1034.2281678 727.01385056 1027.29223633 741.33618164 C1026.66284737 742.6731941 1026.03392193 744.01042488 1025.40551758 745.34790039 C1017.20469639 762.52532532 1007.35324968 778.82381818 995.54370117 793.7512207 C993.910099 795.82015268 992.32467723 797.9248758 990.72973633 800.02368164 C989.588562 801.46488302 988.44246497 802.90219616 987.29223633 804.33618164 C986.62450195 805.18954102 985.95676758 806.04290039 985.26879883 806.92211914 C978.76144841 814.94574538 971.57328222 822.27135936 964.29223633 829.58618164 C963.78403351 830.09956085 963.27583069 830.61294006 962.75222778 831.14187622 C955.94082163 838.00784052 948.92419406 844.37167304 941.29223633 850.33618164 C940.59291992 850.88419434 939.89360352 851.43220703 939.1730957 851.99682617 C906.41402694 877.34610557 870.1158874 895.83674876 830.29223633 907.33618164 C829.58035156 907.54597656 828.8684668 907.75577148 828.13500977 907.97192383 C808.29840532 913.74643607 787.95638104 916.53030329 767.39086914 918.10253906 C765.24627457 918.30377285 765.24627457 918.30377285 762.99515608 918.84273423 C760.24612568 919.34459964 757.7392392 919.46273655 754.94688749 919.46498281 C753.87948599 919.468255 752.81208449 919.4715272 751.71233749 919.47489855 C749.95883799 919.47267311 749.95883799 919.47267311 748.16991425 919.47040272 C746.92006005 919.47275495 745.67020585 919.47510718 744.38247728 919.47753069 C740.90026314 919.48393234 737.41807206 919.48409217 733.93585315 919.48325328 C730.15195522 919.48342275 726.36806557 919.48932868 722.58417177 919.49449414 C715.07283181 919.50382463 707.56149774 919.50774297 700.05015271 919.51001311 C691.05455189 919.51297422 682.05895891 919.5216714 673.0633622 919.53042739 C651.31248466 919.55128193 629.56160575 919.56174515 607.81072054 919.57055699 C597.51518508 919.57476409 587.21965021 919.57998615 576.92411525 919.58524152 C541.66600239 919.60313707 506.40788937 919.61812997 471.14977264 919.62556171 C468.93563462 919.62603647 466.7214966 919.62651236 464.50735858 919.62698938 C462.86035703 919.62734394 462.86035703 919.62734394 461.18008273 919.62770567 C455.61720684 919.62890685 450.05433096 919.6301223 444.49145508 919.63134766 C443.38748824 919.63158781 442.28352141 919.63182796 441.14610104 919.63207538 C405.39386137 919.63995934 369.64165498 919.66336975 333.88942983 919.6959036 C296.07291993 919.73025287 258.25642948 919.74991783 220.43990374 919.75320596 C216.28261343 919.75362347 212.12532313 919.75410303 207.96803284 919.75462914 C206.94442295 919.75475233 205.92081306 919.75487552 204.86618469 919.75500244 C188.43550903 919.75732873 172.00487214 919.77295736 155.57421026 919.79347098 C139.03220321 919.81379456 122.49024242 919.81917564 105.9482252 919.80970035 C96.13839238 919.80450984 86.32871428 919.81024588 76.51890392 919.83223502 C69.94311188 919.84585185 63.36742504 919.84457133 56.79163169 919.83183306 C53.05962577 919.82500761 49.3279132 919.82401601 45.59593481 919.84139315 C-6.68026482 920.06921371 -56.68698357 907.53469347 -98.70776367 875.33618164 C-99.6694043 874.6052832 -100.63104492 873.87438477 -101.62182617 873.12133789 C-117.80444402 860.47083942 -132.57676596 845.91667872 -144.70776367 829.33618164 C-145.45155273 828.3371582 -146.1953418 827.33813477 -146.96166992 826.30883789 C-159.21311838 809.2795437 -168.23114067 790.88314635 -175.70776367 771.33618164 C-175.98201172 770.63332031 -176.25625977 769.93045898 -176.53881836 769.20629883 C-190.6537297 732.57610382 -191.85464724 687.43675316 -183.70776367 649.33618164 C-183.47549072 648.23790039 -183.47549072 648.23790039 -183.23852539 647.11743164 C-182.28196457 642.77848025 -181.06501351 638.56522831 -179.70776367 634.33618164 C-179.4721875 633.59803223 -179.23661133 632.85988281 -178.99389648 632.09936523 C-173.43568938 614.90518755 -166.48840334 598.3781772 -157.14135742 582.89086914 C-155.54463879 580.53373044 -155.54463879 580.53373044 -155.70776367 578.33618164 C-158.17748249 576.6306085 -160.65533821 575.03460965 -163.20776367 573.46118164 C-188.67976376 557.35782387 -213.70651776 536.79840895 -232.50463867 513.09790039 C-234.79925194 510.22149688 -237.18641306 507.44065617 -239.58276367 504.64868164 C-271.66666926 466.1182417 -292.46628512 417.30508133 -301.70776367 368.33618164 C-301.93737793 367.12841064 -301.93737793 367.12841064 -302.17163086 365.89624023 C-305.45080099 348.31767764 -307.05358051 330.82766749 -306.96850586 312.94726562 C-306.95775425 310.27133626 -306.96849946 307.59607575 -306.98120117 304.92016602 C-306.99074063 293.59644037 -306.24192721 282.55294337 -304.70776367 271.33618164 C-304.56709473 270.27407471 -304.42642578 269.21196777 -304.28149414 268.11767578 C-295.58748619 206.07019453 -268.15899112 148.0199307 -225.94604492 101.79711914 C-224.46792322 100.17195915 -223.00649106 98.53144258 -221.56323242 96.87524414 C-215.70694819 90.18536269 -209.35510578 84.2145923 -202.70776367 78.33618164 C-202.17554199 77.85922852 -201.64332031 77.38227539 -201.0949707 76.89086914 C-166.13743312 45.62242297 -120.52082521 19.97283334 -74.70776367 9.33618164 C-73.74354492 9.10979004 -72.77932617 8.88339844 -71.78588867 8.65014648 C-68.28469568 7.83905732 -64.77878092 7.05245844 -61.27026367 6.27368164 C-60.18173096 6.02779297 -59.09319824 5.7819043 -57.97167969 5.52856445 C-38.70581106 1.38775749 -19.68759942 -0.14277425 0 0 Z " fill="#E4F5FE" transform="translate(824.707763671875,740.663818359375)"/>
<path d="M0 0 C3.48762017 0.02373529 6.97447664 0.02050991 10.4621582 0.01391602 C27.21725032 0.03432741 43.99842484 0.57095345 60.41723633 4.21118164 C61.24320313 4.38770264 62.06916992 4.56422363 62.92016602 4.74609375 C64.59419447 5.10502006 66.26740938 5.46776641 67.93969727 5.8347168 C70.0964994 6.29445855 72.25516245 6.70551871 74.42504883 7.09790039 C98.62839775 11.66932239 122.34779352 21.40579105 144.29223633 32.33618164 C145.07050781 32.71983887 145.8487793 33.10349609 146.65063477 33.4987793 C164.35650549 42.29737836 180.76599735 53.12699146 196.29223633 65.33618164 C197.28739258 66.11735352 198.28254883 66.89852539 199.30786133 67.70336914 C216.68047201 81.65109371 233.81021318 97.56203003 247.29223633 115.33618164 C248.20715833 116.49771426 249.12394518 117.65777953 250.04223633 118.81665039 C250.98050994 120.01005299 251.91802176 121.20405494 252.85473633 122.39868164 C253.29760986 122.95990723 253.7404834 123.52113281 254.19677734 124.09936523 C257.29223633 128.10525333 257.29223633 128.10525333 257.29223633 130.33618164 C256.70659912 130.49586426 256.12096191 130.65554688 255.51757812 130.82006836 C187.34880336 149.59662273 121.67050239 187.07639041 76.29223633 242.33618164 C75.62490479 243.13282227 75.62490479 243.13282227 74.9440918 243.94555664 C66.4957657 254.03504082 58.67533906 264.44472486 51.29223633 275.33618164 C50.83107422 276.01229492 50.36991211 276.6884082 49.89477539 277.38500977 C32.64660911 302.82268864 19.55029746 330.42951872 9.29223633 359.33618164 C9.02540039 360.07626465 8.75856445 360.81634766 8.48364258 361.57885742 C5.46545978 369.97878645 3.19697769 378.42073047 1.25708008 387.11743164 C0.38007548 391.03501564 -0.66141508 394.89771331 -1.70776367 398.77368164 C-4.65273294 410.08894686 -6.1647185 421.76093337 -7.70776367 433.33618164 C-7.81161377 434.11429199 -7.91546387 434.89240234 -8.02246094 435.6940918 C-9.03480692 444.40645952 -9.0598143 453.20133391 -9.27026367 461.96118164 C-9.31354573 463.64999241 -9.35716278 465.33879464 -9.40112305 467.02758789 C-9.50719964 471.13036408 -9.60874007 475.23322941 -9.70776367 479.33618164 C-10.77865234 479.60245361 -11.84954102 479.86872559 -12.95288086 480.14306641 C-14.38680813 480.5003748 -15.82072695 480.85771711 -17.25463867 481.21508789 C-17.9570166 481.38963501 -18.65939453 481.56418213 -19.38305664 481.74401855 C-30.50531001 484.51816768 -41.24873125 487.56776256 -51.70776367 492.33618164 C-52.51890625 492.70098633 -53.33004883 493.06579102 -54.16577148 493.44165039 C-78.83406751 504.6009081 -100.18368148 518.62142033 -119.70776367 537.33618164 C-120.23756836 537.83875488 -120.76737305 538.34132813 -121.31323242 538.85913086 C-133.82446832 550.7797235 -143.81802478 564.22024197 -153.70776367 578.33618164 C-182.63635703 567.92403487 -213.64693348 536.8735323 -232.50463867 513.09790039 C-234.79925194 510.22149688 -237.18641306 507.44065617 -239.58276367 504.64868164 C-271.66666926 466.1182417 -292.46628512 417.30508133 -301.70776367 368.33618164 C-301.93737793 367.12841064 -301.93737793 367.12841064 -302.17163086 365.89624023 C-305.45080099 348.31767764 -307.05358051 330.82766749 -306.96850586 312.94726562 C-306.95775425 310.27133626 -306.96849946 307.59607575 -306.98120117 304.92016602 C-306.99074063 293.59644037 -306.24192721 282.55294337 -304.70776367 271.33618164 C-304.56709473 270.27407471 -304.42642578 269.21196777 -304.28149414 268.11767578 C-295.58748619 206.07019453 -268.15899112 148.0199307 -225.94604492 101.79711914 C-224.46792322 100.17195915 -223.00649106 98.53144258 -221.56323242 96.87524414 C-215.70694819 90.18536269 -209.35510578 84.2145923 -202.70776367 78.33618164 C-202.17554199 77.85922852 -201.64332031 77.38227539 -201.0949707 76.89086914 C-166.13743312 45.62242297 -120.52082521 19.97283334 -74.70776367 9.33618164 C-73.74354492 9.10979004 -72.77932617 8.88339844 -71.78588867 8.65014648 C-68.28469568 7.83905732 -64.77878092 7.05245844 -61.27026367 6.27368164 C-60.18173096 6.02779297 -59.09319824 5.7819043 -57.97167969 5.52856445 C-38.70581106 1.38775749 -19.68759942 -0.14277425 0 0 Z " fill="#FEDE29" transform="translate(824.707763671875,740.663818359375)"/>
<path d="M0 0 C1.76836293 2.07177355 3.13995995 3.95754015 4.5625 6.25 C5.19768555 7.24169189 5.19768555 7.24169189 5.84570312 8.25341797 C7.25719232 10.48691013 8.63342478 12.73876043 10 15 C10.48452637 15.80147461 10.96905273 16.60294922 11.46826172 17.42871094 C30.10239129 48.56868212 43.50168595 82.0208583 50.75 117.625 C50.9365918 118.54015381 51.12318359 119.45530762 51.31542969 120.39819336 C51.9296092 123.59176141 52.4737559 126.79067925 53 130 C53.1895224 131.12557816 53.1895224 131.12557816 53.38287354 132.27389526 C55.71027497 146.38586399 56.47344693 160.20984199 56.39111328 174.50317383 C56.37506054 177.80006582 56.3910554 181.09572327 56.41015625 184.39257812 C56.43076559 204.29648435 54.49364757 223.9640027 50.3125 243.4375 C50.05903809 244.63431396 49.80557617 245.83112793 49.54443359 247.06420898 C34.2976907 316.54344258 -5.67308878 381.32677181 -62.28710938 424.67675781 C-63.90917577 425.92983647 -65.50999829 427.21027501 -67.109375 428.4921875 C-76.26156106 435.76283277 -85.97710257 441.99770951 -96 448 C-97.16547363 448.69826904 -97.16547363 448.69826904 -98.35449219 449.41064453 C-167.83842222 490.48524828 -253.87406979 501.43095052 -331.79150391 481.55249023 C-360.4551973 473.91859296 -387.35245651 462.88384161 -413 448 C-411.51391902 443.7095404 -409.26905322 440.21195137 -406.625 436.5625 C-406.18220703 435.95051758 -405.73941406 435.33853516 -405.28320312 434.70800781 C-390.94952495 415.18661766 -373.75271095 397.99698639 -354 384 C-353.40751465 383.56816406 -352.8150293 383.13632813 -352.20458984 382.69140625 C-336.54711978 371.3041553 -318.55509452 361.59266229 -300 356 C-298.54048376 355.50346355 -297.08204661 355.00373731 -295.625 354.5 C-294.0840022 353.99794234 -292.54220897 353.4983248 -291 353 C-290.39333496 352.79842285 -289.78666992 352.5968457 -289.16162109 352.38916016 C-287.04807861 351.68799206 -284.93067707 350.99952821 -282.8125 350.3125 C-282.13461426 350.085625 -281.45672852 349.85875 -280.75830078 349.625 C-276.67918248 348.31904118 -273.25749437 347.90487096 -269 348 C-269.02356567 346.5291394 -269.02356567 346.5291394 -269.04760742 345.02856445 C-269.5567054 310.16850987 -269.5567054 310.16850987 -266.41894531 293.35351562 C-265.8253016 290.01859408 -265.37997129 286.66724086 -264.91967773 283.31176758 C-255.98771444 219.24950455 -224.52211846 154.921996 -180.484375 107.6953125 C-178.52798563 105.5728146 -176.6337155 103.42398495 -174.75 101.23828125 C-170.76159386 96.66568208 -166.54167539 92.34960687 -162.25 88.0625 C-161.45577637 87.26908203 -160.66155273 86.47566406 -159.84326172 85.65820312 C-154.938217 80.80409656 -149.98955735 76.23522278 -144.546875 71.98828125 C-141.74740504 69.80280547 -139.07011628 67.50020114 -136.375 65.1875 C-101.01546025 35.74397077 -58.11311077 14.25132761 -14.125 1.3125 C-13.26986816 1.05637939 -12.41473633 0.80025879 -11.53369141 0.53637695 C-3.60712091 -1.6858678 -3.60712091 -1.6858678 0 0 Z " fill="#FEFAD6" transform="translate(1084,872)"/>
</svg>
